<svg height='200' width='200'  fill="#000000" xmlns="http://www.w3.org/2000/svg" xmlns:xlink="http://www.w3.org/1999/xlink" version="1.1" x="0px" y="0px" viewBox="0 0 512 512" style="enable-background:new 0 0 512 512;" xml:space="preserve"><style type="text/css">
	.st0{display:none;}
	.st1{display:inline;}
	.st2{fill:none;stroke:#000000;stroke-width:0.1;stroke-miterlimit:10;}
</style><g class="st0"><g class="st1"><rect class="st2" width="512" height="512"></rect><line class="st2" x1="0" y1="496" x2="512" y2="496"></line><line class="st2" x1="0" y1="480" x2="512" y2="480"></line><line class="st2" x1="0" y1="464" x2="512" y2="464"></line><line class="st2" x1="0" y1="448" x2="512" y2="448"></line><line class="st2" x1="0" y1="432" x2="512" y2="432"></line><line class="st2" x1="0" y1="416" x2="512" y2="416"></line><line class="st2" x1="0" y1="400" x2="512" y2="400"></line><line class="st2" x1="0" y1="384" x2="512" y2="384"></line><line class="st2" x1="0" y1="368" x2="512" y2="368"></line><line class="st2" x1="0" y1="352" x2="512" y2="352"></line><line class="st2" x1="0" y1="336" x2="512" y2="336"></line><line class="st2" x1="0" y1="320" x2="512" y2="320"></line><line class="st2" x1="0" y1="304" x2="512" y2="304"></line><line class="st2" x1="0" y1="288" x2="512" y2="288"></line><line class="st2" x1="0" y1="272" x2="512" y2="272"></line><line class="st2" x1="0" y1="256" x2="512" y2="256"></line><line class="st2" x1="0" y1="240" x2="512" y2="240"></line><line class="st2" x1="0" y1="224" x2="512" y2="224"></line><line class="st2" x1="0" y1="208" x2="512" y2="208"></line><line class="st2" x1="0" y1="192" x2="512" y2="192"></line><line class="st2" x1="0" y1="176" x2="512" y2="176"></line><line class="st2" x1="0" y1="160" x2="512" y2="160"></line><line class="st2" x1="0" y1="144" x2="512" y2="144"></line><line class="st2" x1="0" y1="128" x2="512" y2="128"></line><line class="st2" x1="0" y1="112" x2="512" y2="112"></line><line class="st2" x1="0" y1="96" x2="512" y2="96"></line><line class="st2" x1="0" y1="80" x2="512" y2="80"></line><line class="st2" x1="0" y1="64" x2="512" y2="64"></line><line class="st2" x1="0" y1="48" x2="512" y2="48"></line><line class="st2" x1="0" y1="32" x2="512" y2="32"></line><line class="st2" x1="0" y1="16" x2="512" y2="16"></line><line class="st2" x1="496" y1="0" x2="496" y2="512"></line><line class="st2" x1="480" y1="0" x2="480" y2="512"></line><line class="st2" x1="464" y1="0" x2="464" y2="512"></line><line class="st2" x1="448" y1="0" x2="448" y2="512"></line><line class="st2" x1="432" y1="0" x2="432" y2="512"></line><line class="st2" x1="416" y1="0" x2="416" y2="512"></line><line class="st2" x1="400" y1="0" x2="400" y2="512"></line><line class="st2" x1="384" y1="0" x2="384" y2="512"></line><line class="st2" x1="368" y1="0" x2="368" y2="512"></line><line class="st2" x1="352" y1="0" x2="352" y2="512"></line><line class="st2" x1="336" y1="0" x2="336" y2="512"></line><line class="st2" x1="320" y1="0" x2="320" y2="512"></line><line class="st2" x1="304" y1="0" x2="304" y2="512"></line><line class="st2" x1="288" y1="0" x2="288" y2="512"></line><line class="st2" x1="272" y1="0" x2="272" y2="512"></line><line class="st2" x1="256" y1="0" x2="256" y2="512"></line><line class="st2" x1="240" y1="0" x2="240" y2="512"></line><line class="st2" x1="224" y1="0" x2="224" y2="512"></line><line class="st2" x1="208" y1="0" x2="208" y2="512"></line><line class="st2" x1="192" y1="0" x2="192" y2="512"></line><line class="st2" x1="176" y1="0" x2="176" y2="512"></line><line class="st2" x1="160" y1="0" x2="160" y2="512"></line><line class="st2" x1="144" y1="0" x2="144" y2="512"></line><line class="st2" x1="128" y1="0" x2="128" y2="512"></line><line class="st2" x1="112" y1="0" x2="112" y2="512"></line><line class="st2" x1="96" y1="0" x2="96" y2="512"></line><line class="st2" x1="80" y1="0" x2="80" y2="512"></line><line class="st2" x1="64" y1="0" x2="64" y2="512"></line><line class="st2" x1="48" y1="0" x2="48" y2="512"></line><line class="st2" x1="32" y1="0" x2="32" y2="512"></line><line class="st2" x1="16" y1="0" x2="16" y2="512"></line></g></g><g><path d="M391.8,198.7c-33.5-11.3-61.2-25.6-84.6-43.8c-22.6-17.8-36.3-30.5-46-42.5l-5.3-6.5l-5.2,6.6   c-10,12.8-24.6,26.5-45.9,43.1c-23,18-51.4,32.5-84.3,43.1l-5.3,1.7l0.7,5.5c1.4,11.3,5.8,24.7,11,40.3c1.1,3.2,2.1,6.4,3.2,9.8   c9.3,28.5,23.7,55.2,42.9,79.3c27.5,34.5,59.3,58.3,80,69.1l3.2,1.7l3.2-1.7c26-14.4,55.7-40.3,79.5-69.4l0.1-0.1   c10.1-12.4,31-38.3,44.2-79.3l1.9-6.1c5.5-17.3,10.3-32.2,11.2-43.7l0.4-5.2L391.8,198.7z M382.4,209.5   c-1.7,10.3-6.2,24.1-10.5,37.5l-1.4,4.3c-12.5,38.7-32.3,63.2-41.9,75c-21.6,26.4-48.6,50.4-72.4,64.4c-10.4-5.8-42-25.4-72.6-63.9   c-18-22.7-31.7-48-40.7-75.2c-1.1-3.3-2.2-6.6-3.2-9.8l-0.2-0.7c-4-12.2-7.5-22.8-9.3-31.7c32.3-11,60.2-25.6,83-43.5   c19.4-15.2,32.7-27.3,43-39.1c10,11.2,23.3,23.1,42.9,38.4C322.3,183.4,349.5,197.9,382.4,209.5z"></path><path d="M256.1,266.3c-5.5,0-10,4.5-10,10c0,2.9,1.1,5.5,3.2,7.4l-2.1,14.4h17.9l-2.1-14.4c2-1.9,3.2-4.6,3.2-7.4   C266.3,270.8,261.8,266.3,256.1,266.3z"></path><path d="M293.1,222.1c0-17.4-16.6-31.6-36.9-31.6c-20.4,0-36.9,14.2-36.9,31.6v7.7h-18.5v94.6h110.6v-94.6h-18.3V222.1z    M256.1,203.8c13,0,23.6,8.2,23.6,18.4v7.7h-47.2v-7.7C232.6,212,243.1,203.8,256.1,203.8z M214,311v-68h84v68H214z"></path></g><g><path d="M256,506c-66.8,0-129.6-26-176.8-73.2S6,322.8,6,256S32,126.4,79.2,79.2S189.2,6,256,6s129.6,26,176.8,73.2   S506,189.2,506,256s-26,129.6-73.2,176.8S322.8,506,256,506z M256,22C127,22,22,127,22,256s105,234,234,234s234-105,234-234   S385,22,256,22z"></path></g></svg>