<svg height='200' width='200'  fill="#000000" xmlns="http://www.w3.org/2000/svg" xmlns:xlink="http://www.w3.org/1999/xlink" version="1.1" x="0px" y="0px" viewBox="0 0 500 500" enable-background="new 0 0 500 500" xml:space="preserve"><path fill="#000000" d="M245.642,487.618l-40.34-4.113l-0.814-15.715l-22.732-6.015l-8.48,13.257l-37.094-16.377l4.082-15.197  l-19.761-12.745l-12.161,9.988l-30.219-27.038l8.58-13.193l-14.856-18.228l-14.653,5.741l-20.384-35.053l12.236-9.896l-8.495-21.926  l-15.71,0.933l-8.555-39.637l14.696-5.63l-1.305-23.479l-15.23-3.969l4.114-40.339l15.715-0.814l6.015-22.732l-13.257-8.479  l16.375-37.094l15.199,4.082l12.744-19.761l-9.987-12.162l27.039-30.219l13.193,8.58l18.228-14.856l-5.742-14.652l35.051-20.384  l9.897,12.236l21.926-8.496l-0.932-15.709l39.635-8.554l5.632,14.695l23.477-1.305l3.968-15.229l40.341,4.113l0.813,15.715  l22.731,6.016l8.48-13.258l37.094,16.377l-4.082,15.199l19.762,12.744l12.161-9.988l30.218,27.038l-8.579,13.193l14.855,18.228  l14.652-5.742l20.386,35.052l-12.237,9.896l8.496,21.927l15.71-0.932l8.555,39.635l-14.696,5.631l1.305,23.478l15.229,3.968  l-4.113,40.34l-15.715,0.814l-6.015,22.731l13.257,8.479l-16.376,37.095l-15.198-4.082l-12.745,19.762l9.988,12.161l-27.038,30.218  l-13.193-8.579l-18.228,14.855l5.741,14.652l-35.051,20.386l-9.897-12.237l-21.927,8.496l0.933,15.71l-39.636,8.555l-5.632-14.696  l-23.478,1.305L245.642,487.618z M214.845,474.427l23.281,2.373l3.645-13.991l38.044-2.113l5.173,13.501l22.876-4.938l-0.856-14.433  l35.528-13.766l9.093,11.241l20.229-11.765l-5.275-13.461l29.536-24.072l12.121,7.882l15.604-17.44l-9.176-11.173l20.651-32.02  l13.964,3.75l9.45-21.409l-12.179-7.79l9.746-36.835l14.438-0.748l2.373-23.281l-13.991-3.646l-2.113-38.043l13.501-5.174  l-4.938-22.875l-14.433,0.856l-13.766-35.529l11.241-9.092l-11.765-20.23l-13.461,5.275l-24.072-29.536l7.882-12.122l-17.44-15.604  l-11.172,9.176l-32.021-20.651l3.75-13.963l-21.408-9.452l-7.791,12.181l-36.835-9.748l-0.747-14.438l-23.283-2.374l-3.646,13.991  l-38.042,2.114l-5.174-13.5l-22.875,4.937l0.856,14.433l-35.528,13.766L146.75,53.45l-20.229,11.764l5.275,13.462l-29.536,24.072  l-12.121-7.882l-15.605,17.44l9.176,11.173L63.058,155.5l-13.963-3.75l-9.451,21.408l12.18,7.79l-9.746,36.836l-14.438,0.748  l-2.375,23.281l13.992,3.646l2.114,38.045l-13.501,5.173l4.937,22.875l14.434-0.858l13.765,35.531l-11.242,9.092l11.765,20.229  l13.462-5.274l24.072,29.536l-7.882,12.121l17.44,15.604l11.173-9.176l32.021,20.651l-3.75,13.963l21.408,9.451l7.791-12.179  l36.834,9.746L214.845,474.427z"></path><path fill="#000000" d="M265.366,431.706c-2.302,0-4.264-1.755-4.477-4.092c-0.226-2.475,1.598-4.664,4.073-4.89l0.97-0.091  c2.47-0.241,4.674,1.57,4.913,4.044c0.24,2.474-1.57,4.674-4.044,4.913l-1.022,0.097C265.641,431.7,265.503,431.706,265.366,431.706  z M225.486,430.854c-0.202,0-0.406-0.014-0.612-0.042l-1.005-0.139c-2.461-0.343-4.179-2.616-3.836-5.078  c0.343-2.461,2.621-4.18,5.078-3.836l0.976,0.135c2.463,0.335,4.188,2.603,3.853,5.065  C229.632,429.217,227.702,430.854,225.486,430.854z M305.376,423.234c-1.874,0-3.622-1.179-4.26-3.05  c-0.801-2.354,0.456-4.91,2.809-5.711l0.935-0.319c2.353-0.807,4.911,0.444,5.719,2.793c0.808,2.351-0.443,4.911-2.793,5.719  l-0.959,0.327C306.346,423.157,305.856,423.234,305.376,423.234z M185.865,420.644c-0.542,0-1.092-0.099-1.627-0.306l-0.962-0.377  c-2.311-0.914-3.443-3.529-2.529-5.84s3.531-3.443,5.84-2.529l0.907,0.355c2.317,0.899,3.466,3.507,2.567,5.823  C189.37,419.553,187.668,420.644,185.865,420.644z M342.308,405.657c-1.492,0-2.952-0.742-3.808-2.097  c-1.328-2.102-0.701-4.881,1.399-6.208l0.828-0.524c2.092-1.336,4.878-0.723,6.213,1.375c1.337,2.095,0.721,4.877-1.375,6.213  l-0.857,0.544C343.962,405.432,343.13,405.657,342.308,405.657z M149.726,401.469c-0.882,0-1.772-0.258-2.553-0.797l-0.846-0.588  c-2.036-1.425-2.531-4.231-1.106-6.268c1.426-2.035,4.23-2.53,6.267-1.105l0.798,0.555c2.045,1.412,2.559,4.215,1.146,6.26  C152.56,400.79,151.155,401.469,149.726,401.469z M374.142,379.997c-1.137,0-2.273-0.428-3.148-1.285  c-1.776-1.739-1.806-4.588-0.066-6.363l0.686-0.703c1.731-1.784,4.579-1.824,6.363-0.092c1.782,1.731,1.824,4.58,0.092,6.363  l-0.711,0.729C376.475,379.546,375.309,379.997,374.142,379.997z M119.025,374.451c-1.23,0-2.456-0.502-3.344-1.487l-0.685-0.765  c-1.652-1.856-1.487-4.701,0.369-6.354c1.856-1.651,4.701-1.487,6.354,0.369l0.648,0.724c1.664,1.847,1.516,4.691-0.33,6.355  C121.176,374.069,120.098,374.451,119.025,374.451z M399.2,347.675c-0.791,0-1.592-0.209-2.319-0.646  c-2.128-1.283-2.813-4.049-1.531-6.178l0.502-0.837c1.271-2.136,4.033-2.834,6.169-1.565c2.136,1.271,2.836,4.033,1.565,6.169  l-0.527,0.88C402.213,346.898,400.726,347.675,399.2,347.675z M95.396,341.085c-1.594,0-3.138-0.849-3.955-2.347l-0.489-0.903  c-1.175-2.189-0.353-4.918,1.837-6.093c2.191-1.174,4.918-0.353,6.093,1.837l0.461,0.851c1.189,2.183,0.385,4.916-1.797,6.105  C96.862,340.908,96.124,341.085,95.396,341.085z M416.08,310.413c-0.452,0-0.911-0.068-1.365-0.213  c-2.368-0.753-3.678-3.283-2.924-5.652l0.293-0.931c0.738-2.373,3.262-3.7,5.633-2.961c2.373,0.738,3.699,3.26,2.961,5.633  l-0.311,0.987C419.759,309.19,417.987,310.413,416.08,310.413z M80.158,303.136c-1.982,0-3.798-1.32-4.341-3.326l-0.264-0.987  c-0.637-2.402,0.794-4.866,3.196-5.503c2.402-0.635,4.866,0.795,5.503,3.196l0.252,0.944c0.649,2.398-0.77,4.87-3.168,5.519  C80.943,303.085,80.547,303.136,80.158,303.136z M423.796,270.247c-0.106,0-0.214-0.004-0.321-0.011  c-2.479-0.176-4.348-2.327-4.173-4.806l0.068-0.983c0.168-2.48,2.339-4.352,4.793-4.188c2.479,0.168,4.354,2.313,4.188,4.793  l-0.07,1.011C428.112,268.436,426.137,270.247,423.796,270.247z M74.197,262.678c-2.424,0-4.424-1.929-4.496-4.368l-0.027-1.017  c-0.062-2.484,1.902-4.549,4.386-4.611c2.493-0.064,4.549,1.902,4.611,4.387l0.026,0.978c0.073,2.483-1.881,4.557-4.366,4.63  C74.287,262.677,74.242,262.678,74.197,262.678z M422.025,229.392c-2.172,0-4.083-1.576-4.438-3.789l-0.156-0.96  c-0.408-2.452,1.248-4.77,3.7-5.178c2.456-0.404,4.77,1.249,5.177,3.7l0.166,1.014c0.394,2.454-1.277,4.762-3.731,5.155  C422.502,229.374,422.263,229.392,422.025,229.392z M77.714,221.94c-0.301,0-0.607-0.03-0.914-0.094  c-2.434-0.502-4-2.882-3.498-5.316l0.21-1.005c0.517-2.431,2.904-3.982,5.337-3.466c2.431,0.517,3.983,2.907,3.466,5.337  l-0.199,0.953C81.678,220.475,79.804,221.94,77.714,221.94z M410.848,190.059c-1.767,0-3.442-1.046-4.16-2.78l-0.369-0.879  c-0.972-2.287,0.095-4.929,2.382-5.901c2.288-0.973,4.93,0.094,5.901,2.382l0.402,0.957c0.95,2.296-0.141,4.928-2.437,5.879  C412.004,189.948,411.421,190.059,410.848,190.059z M90.602,183.118c-0.641,0-1.291-0.137-1.909-0.427  c-2.25-1.056-3.217-3.736-2.162-5.986l0.436-0.922c1.064-2.246,3.748-3.205,5.994-2.138c2.246,1.064,3.203,3.748,2.139,5.994  l-0.421,0.891C93.913,182.161,92.292,183.118,90.602,183.118z M390.809,154.431c-1.389,0-2.758-0.641-3.64-1.848l-0.578-0.791  c-1.474-2.001-1.045-4.818,0.957-6.292c2.002-1.474,4.819-1.043,6.291,0.958l0.602,0.82c1.465,2.008,1.024,4.823-0.983,6.288  C392.657,154.15,391.729,154.431,390.809,154.431z M112.187,148.371c-0.984,0-1.975-0.321-2.803-0.982  c-1.943-1.55-2.261-4.381-0.711-6.324l0.637-0.795c1.558-1.937,4.39-2.245,6.327-0.686c1.937,1.558,2.243,4.391,0.686,6.327  l-0.614,0.766C114.819,147.791,113.509,148.371,112.187,148.371z M363.052,124.393c-1.037,0-2.078-0.356-2.927-1.083l-0.737-0.627  c-1.898-1.604-2.137-4.443-0.533-6.342c1.604-1.899,4.444-2.137,6.342-0.533l0.786,0.669c1.887,1.617,2.105,4.458,0.488,6.345  C365.58,123.86,364.319,124.393,363.052,124.393z M141.22,119.56c-1.333,0-2.654-0.59-3.542-1.72  c-1.535-1.955-1.195-4.784,0.759-6.319l0.813-0.634c1.966-1.521,4.792-1.161,6.313,0.804c1.521,1.965,1.161,4.792-0.804,6.313  l-0.762,0.595C143.173,119.246,142.193,119.56,141.22,119.56z M329.104,101.575c-0.693,0-1.396-0.161-2.056-0.5l-0.866-0.442  c-2.218-1.123-3.104-3.831-1.981-6.048c1.123-2.216,3.831-3.105,6.048-1.98l0.919,0.469c2.21,1.138,3.079,3.851,1.941,6.061  C332.311,100.684,330.735,101.575,329.104,101.575z M176.108,98.248c-1.703,0-3.332-0.971-4.091-2.62  c-1.039-2.257-0.051-4.93,2.207-5.969l0.93-0.424c2.264-1.026,4.93-0.022,5.956,2.241c1.026,2.264,0.022,4.93-2.241,5.956  l-0.882,0.403C177.377,98.115,176.737,98.248,176.108,98.248z M290.782,87.28c-0.354,0-0.712-0.042-1.07-0.129l-0.948-0.228  c-2.417-0.576-3.911-3.002-3.336-5.419c0.575-2.418,2.997-3.909,5.42-3.336l0.997,0.241c2.415,0.589,3.895,3.024,3.306,5.438  C294.648,85.902,292.808,87.28,290.782,87.28z M215,85.646c-2.106,0-3.987-1.485-4.41-3.63c-0.481-2.438,1.105-4.805,3.544-5.286  l1.009-0.196c2.447-0.462,4.798,1.137,5.264,3.577c0.465,2.441-1.136,4.798-3.577,5.264l-0.954,0.186  C215.582,85.618,215.288,85.646,215,85.646z M250.189,82.312c-0.009,0-0.018,0-0.027,0l-0.974-0.003c-2.485,0-4.5-2.015-4.5-4.5  s2.015-4.5,4.5-4.5l1.026,0.003c2.485,0.015,4.488,2.041,4.473,4.526C254.675,80.314,252.662,82.312,250.189,82.312z"></path><path fill="#000000" d="M249.189,441.589c-104.057,0-188.714-84.656-188.714-188.714c0-104.057,84.657-188.714,188.714-188.714  s188.714,84.657,188.714,188.714C437.903,356.933,353.246,441.589,249.189,441.589z M249.189,66.161  c-102.955,0-186.714,83.759-186.714,186.714c0,102.954,83.759,186.714,186.714,186.714s186.714-83.76,186.714-186.714  C435.903,149.92,352.144,66.161,249.189,66.161z"></path><path fill="#000000" d="M234.539,307.627c-3.993,0.479-8.031,0.528-12.005,0.15l2.417-25.454c2.16,0.207,4.361,0.178,6.547-0.085  L234.539,307.627z M185.316,214.522c2.483-3.163,5.305-6.052,8.38-8.596l16.289,19.706c-1.674,1.382-3.209,2.961-4.567,4.691  L185.316,214.522z M223.883,194.133c3.991-0.479,8.029-0.528,12.006-0.153l-2.415,25.451c-2.161-0.205-4.365-0.175-6.549,0.087  L223.883,194.133z M190.23,295.456c-2.956-2.688-5.634-5.703-7.96-8.955l20.802-14.868c1.275,1.785,2.744,3.438,4.365,4.913  L190.23,295.456z M171.979,258.652c-0.116-1.315-0.187-2.654-0.211-3.98l-0.006-0.432c-0.031-2.457,0.108-5.021,0.414-7.529  l25.381,3.088c-0.169,1.387-0.246,2.805-0.229,4.215l0.002,0.188c0.015,0.731,0.054,1.473,0.118,2.196L171.979,258.652z"></path><path fill="#000000" d="M249.852,381.956c-1,0-2.001-0.3-2.86-0.898c-97.293-67.849-94.6-117.056-93.903-122.815V169.53  c0-1.392,0.58-2.721,1.601-3.667c1.021-0.947,2.393-1.428,3.778-1.318l0,0c0.001,0,0.814,0.057,2.292,0.057  c10.546,0,47.896-2.677,85.726-37.12c1.908-1.737,4.826-1.737,6.732,0c23.783,21.655,47.492,30.585,63.194,34.263  c10.66,2.485,18.689,2.856,22.526,2.856c1.479,0,2.289-0.057,2.297-0.057c1.392-0.098,2.754,0.382,3.769,1.328  c1.016,0.946,1.599,2.271,1.599,3.659v89.037c0.69,4.284-0.418,10.57-1.07,13.666c-0.846,3.993-2.099,8.159-3.724,12.385  c-3.057,7.876-7.396,16.024-12.903,24.233c-2.681,3.985-5.646,8.009-8.815,11.964c-6.186,7.718-13.477,15.594-21.673,23.408  c-0.024,0.023-0.05,0.046-0.074,0.069c-0.062,0.056-0.115,0.111-0.178,0.173c-0.029,0.03-0.06,0.06-0.09,0.089  c-4.064,3.862-8.483,7.834-13.135,11.802c-9.686,8.234-20.526,16.543-32.229,24.702  C251.853,381.656,250.853,381.956,249.852,381.956z M163.089,174.564v84.015c0,0.279-0.023,0.559-0.07,0.834  c-0.008,0.061-1.551,11.594,8.521,31.14c9.247,17.944,30.333,46.312,78.312,80.292c10.349-7.327,19.959-14.753,28.604-22.103  c4.492-3.832,8.761-7.667,12.684-11.394c0.14-0.14,0.27-0.267,0.407-0.394c7.861-7.498,14.839-15.033,20.739-22.395  c2.996-3.738,5.795-7.536,8.316-11.286c5.095-7.594,9.092-15.085,11.877-22.262c1.431-3.72,2.532-7.374,3.268-10.847  c1.422-6.747,0.948-10.567,0.919-10.789c-0.043-0.262-0.064-0.528-0.064-0.798v-84.016c-4.782-0.146-12.647-0.792-22.466-3.081  c-16.115-3.775-40.048-12.672-64.284-33.62C212.9,169.825,176.592,174.156,163.089,174.564z"></path><path fill="#000000" d="M249.853,381.959c-2.761,0-5-2.238-5-5V131.183c0-2.761,2.239-5,5-5s5,2.239,5,5v245.776  C254.854,379.721,252.614,381.959,249.853,381.959z"></path><g><path fill="#000000" d="M246.738,340.93v11.623h34.958c4.66-3.976,8.961-7.845,12.935-11.623H246.738z M246.738,306.064v11.623   h69.45c3.242-4.045,6.078-7.927,8.564-11.623H246.738z M246.738,271.201v11.621h90.403c1.708-4.439,2.802-8.332,3.498-11.621   H246.738z M246.738,236.343v11.619h94.865v-11.619H246.738z M246.738,201.479V213.1h94.865v-11.622L246.738,201.479   L246.738,201.479z M315.271,166.614h-68.534v11.622h94.865v-8.704C341.604,169.531,331.181,170.321,315.271,166.614z"></path></g></svg>